<?xml version="1.0" standalone="no"?>
<!DOCTYPE svg PUBLIC "-//W3C//DTD SVG 20010904//EN"
 "http://www.w3.org/TR/2001/REC-SVG-20010904/DTD/svg10.dtd">
<svg version="1.0" xmlns="http://www.w3.org/2000/svg"
 width="500.000000pt" height="281.000000pt" viewBox="0 0 500.000000 281.000000"
 preserveAspectRatio="xMidYMid meet">

<g transform="translate(0.000000,281.000000) scale(0.100000,-0.100000)"
fill="#000000" stroke="none">
<path d="M891 2188 c-21 -46 -127 -265 -236 -488 -108 -223 -210 -432 -225
-465 -15 -33 -92 -190 -170 -350 -78 -159 -146 -300 -150 -311 -8 -20 -4 -22
37 -28 25 -3 87 -6 137 -6 l91 0 111 253 110 252 172 3 171 2 3 -50 3 -50 118
91 c64 49 117 93 117 97 0 4 -52 56 -115 115 l-115 108 0 -45 0 -46 -130 0
-130 0 9 23 c43 108 234 554 242 561 5 6 9 -75 9 -211 l0 -221 96 -91 c54 -50
100 -88 104 -86 4 3 8 234 9 515 l2 510 -115 0 -116 0 -39 -82z"/>
<path d="M655 2035 c-152 -34 -252 -90 -365 -204 -149 -151 -210 -288 -217
-496 -6 -148 11 -237 66 -350 62 -127 62 -127 95 -57 l28 59 -25 65 c-38 93
-49 152 -49 253 0 106 20 192 67 284 82 161 233 282 405 324 52 13 56 16 82
68 15 30 28 57 28 62 0 10 -46 7 -115 -8z"/>
<path d="M1341 1778 c-29 -210 -119 -893 -117 -895 1 -1 50 -3 110 -4 l109 -2
213 487 c118 268 214 489 214 491 0 3 -46 5 -103 5 l-103 0 -88 -221 c-49
-121 -90 -219 -91 -217 -2 2 12 93 31 203 18 110 34 208 34 218 0 15 -11 17
-99 17 l-99 0 -11 -82z"/>
<path d="M1782 1378 c-78 -266 -142 -487 -142 -493 0 -6 68 -9 188 -7 l189 3
29 81 c16 45 31 86 32 90 2 4 -37 8 -87 8 -66 0 -91 3 -91 13 0 6 14 57 30
111 17 55 30 101 30 103 0 1 40 3 90 3 l89 0 11 38 c5 20 16 58 24 85 l15 47
-84 0 c-101 0 -99 -4 -56 130 l27 85 90 3 91 3 23 77 c13 42 25 83 27 90 4 9
-38 12 -189 12 l-194 0 -142 -482z"/>
<path d="M2231 1374 c-79 -267 -141 -487 -140 -489 7 -6 33 -7 110 -6 l76 1
54 180 c29 99 57 180 61 180 5 0 8 -37 8 -82 0 -46 3 -127 7 -180 l6 -98 82 0
82 0 141 483 c78 265 142 486 142 490 0 4 -44 6 -97 5 l-97 -3 -50 -172 c-28
-94 -54 -175 -59 -179 -4 -4 -7 74 -7 174 l0 182 -88 0 -88 0 -143 -486z"/>
<path d="M2973 1845 c-17 -7 -39 -24 -47 -37 -26 -39 -236 -767 -236 -816 0
-37 6 -50 34 -78 34 -34 34 -34 130 -34 53 0 96 -3 96 -8 0 -4 -4 -22 -9 -40
-6 -18 -7 -32 -3 -30 9 4 216 110 219 112 1 1 37 119 79 261 42 143 79 266 81
273 4 9 -23 12 -114 12 l-119 0 -22 -75 c-26 -88 -27 -95 -7 -95 21 0 19 -10
-18 -135 l-33 -110 -47 -3 c-34 -2 -49 1 -53 11 -4 12 101 388 162 580 l16 47
113 0 114 0 21 73 c12 39 24 80 26 90 5 16 -8 17 -173 17 -129 -1 -187 -5
-210 -15z"/>
<path d="M3477 1773 c-203 -687 -258 -877 -254 -887 3 -8 58 -10 189 -8 l184
3 31 89 32 90 -94 0 -94 0 9 28 c5 15 21 66 35 115 l26 87 88 0 87 0 26 85 25
85 -82 0 c-45 0 -84 2 -87 5 -2 3 9 52 26 110 l30 105 92 0 91 0 22 74 c11 41
24 82 27 90 5 14 -16 16 -188 16 l-195 0 -26 -87z"/>
<path d="M3927 1773 c-182 -616 -257 -873 -257 -882 0 -7 34 -11 100 -11 l99
0 11 38 c5 20 32 111 59 202 l48 165 47 3 c34 2 46 0 46 -11 0 -8 -25 -98 -55
-201 -30 -102 -55 -188 -55 -191 0 -3 46 -4 101 -3 l102 3 53 180 c57 190 63
234 39 259 -13 13 -13 15 4 21 36 11 50 42 106 232 64 216 64 235 4 265 -29
15 -63 18 -230 18 l-196 0 -26 -87z m271 -86 c8 -9 2 -40 -18 -110 -41 -137
-41 -137 -100 -137 -49 0 -49 0 -40 28 5 15 23 73 40 130 l31 102 38 0 c21 0
43 -6 49 -13z"/>
<path d="M4563 1845 c-17 -7 -38 -24 -46 -37 -17 -27 -137 -433 -137 -464 0
-45 23 -58 114 -64 47 -4 88 -9 91 -12 8 -8 -41 -176 -56 -194 -8 -10 -38 -14
-110 -14 l-98 0 -26 -86 c-14 -47 -25 -87 -23 -89 6 -6 38 -7 206 -6 165 1
174 2 195 24 16 15 41 87 86 241 52 179 62 224 54 249 -12 43 -44 57 -131 57
-84 0 -80 -15 -33 137 l27 88 104 5 103 5 24 75 c12 41 23 81 23 88 0 18 -323
16 -367 -3z"/>
<path d="M1100 1017 c-19 -17 -62 -56 -95 -84 l-60 -53 103 0 102 0 0 85 c0
47 -3 85 -7 85 -5 0 -24 -15 -43 -33z"/>
<path d="M1191 810 c-50 -43 -159 -97 -232 -116 -122 -32 -280 -19 -395 31
l-51 23 -27 -55 -26 -54 52 -23 c93 -41 185 -59 298 -58 158 1 283 39 410 125
52 35 160 136 160 149 0 4 -35 8 -77 8 -71 -1 -81 -3 -112 -30z"/>
</g>
</svg>
